<?xml version="1.0" standalone="no"?><!DOCTYPE svg PUBLIC "-//W3C//DTD SVG 1.1//EN" "http://www.w3.org/Graphics/SVG/1.1/DTD/svg11.dtd"><svg t="1714271329986" class="icon" viewBox="0 0 1024 1024" version="1.1" xmlns="http://www.w3.org/2000/svg" p-id="2101" xmlns:xlink="http://www.w3.org/1999/xlink" width="256" height="256"><path d="M703.466752 395.637184C663.472704 329.876928 591.5824 288 512 288 388.288192 288 288 388.288192 288 512 288 635.711808 388.288192 736 512 736 579.983296 736 642.918848 705.56992 685.239872 654.011648 696.452928 640.351232 716.616832 638.367232 730.277248 649.580224 743.937664 660.793216 745.921664 680.95712 734.708672 694.617536 680.357376 760.831872 599.34976 800 512 800 352.942016 800 224 671.057984 224 512 224 352.942016 352.942016 224 512 224 627.805056 224 730.956352 292.991552 776.285248 397.392896 783.323776 413.603968 775.887936 432.451456 759.676928 439.489984 758.567616 439.971584 757.446016 440.385408 756.316736 440.733312 754.208192 442.463104 751.842176 443.949696 749.241664 445.131712L397.241664 605.131712C381.152704 612.444928 362.18144 605.330688 354.868288 589.241664 347.555072 573.152704 354.669312 554.18144 370.758336 546.868288L703.466752 395.637184 703.466752 395.637184 703.466752 395.637184ZM512 1024C794.769792 1024 1024 794.769792 1024 512 1024 229.230208 794.769792 0 512 0 229.230208 0 0 229.230208 0 512 0 794.769792 229.230208 1024 512 1024L512 1024 512 1024Z" fill="#409EFF" p-id="2102"></path></svg>