<?xml version="1.0" standalone="no"?><!DOCTYPE svg PUBLIC "-//W3C//DTD SVG 1.1//EN" "http://www.w3.org/Graphics/SVG/1.1/DTD/svg11.dtd"><svg t="1753557806585" class="icon" viewBox="0 0 1024 1024" version="1.1" xmlns="http://www.w3.org/2000/svg" p-id="5600" width="256" height="256" xmlns:xlink="http://www.w3.org/1999/xlink"><path d="M341.3344 170.666667v85.333333H64.001067a42.794667 42.794667 0 0 1-42.666667-42.666667 41.706667 41.706667 0 0 1 12.586667-30.08A41.706667 41.706667 0 0 1 64.001067 170.666667h277.333333z" fill="#EFF1F4" p-id="5601"></path><path d="M725.3344 981.333333v21.333334h-170.666667v-64h85.333334v-64h85.333333v106.666666zM469.3344 981.333333v21.333334h-170.666667v-64h85.333334v-64h85.333333v106.666666zM362.667733 448c0 153.386667-85.973333 277.333333-192 277.333333a243.925333 243.925333 0 0 0 31.146667 103.893334L192.001067 832H129.921067a42.965333 42.965333 0 0 1-42.453334-47.146667C97.281067 677.76 140.3744 597.333333 192.001067 597.333333c94.293333 0 170.666667-95.36 170.666666-213.333333z" fill="#EAAE5A" p-id="5602"></path><path d="M725.3344 874.666667H256.001067c-20.48 0-39.466667-19.626667-54.186667-45.44A243.925333 243.925333 0 0 1 170.667733 725.333333c106.026667 0 192-123.946667 192-277.333333v-128H192.001067a42.794667 42.794667 0 0 1-42.666667-42.666667v-21.333333h192V170.666667H149.3344V64a42.794667 42.794667 0 0 1 42.666667-42.666667h298.666666a42.794667 42.794667 0 0 1 42.666667 42.666667v269.013333a85.333333 85.333333 0 0 0 71.253333 84.266667L789.3344 448c35.413333 0 128 4.48 128-42.666667 0-58.88 49.92-106.666667 85.333333-106.666666 0 318.293333-76.373333 576-170.666666 576z" fill="#F6CD85" p-id="5603"></path><path d="M725.3344 853.333333h106.666667v42.666667h-106.666667zM469.3344 853.333333h170.666667v42.666667h-170.666667zM256.001067 853.333333h128v42.666667h-128zM341.3344 277.333333H64.001067a64 64 0 0 1-64-64 62.613333 62.613333 0 0 1 19.050666-45.354666A62.378667 62.378667 0 0 1 64.001067 149.333333h277.333333a21.333333 21.333333 0 0 1 21.333333 21.333334v85.333333a21.333333 21.333333 0 0 1-21.333333 21.333333zM64.001067 192a20.416 20.416 0 0 0-14.805334 6.144A20.864 20.864 0 0 0 42.667733 213.333333a21.333333 21.333333 0 0 0 21.333334 21.333334h256V192z" fill="#2A3244" p-id="5604"></path><path d="M384.001067 448h-42.666667v-106.666667H192.001067a64 64 0 0 1-64-64v-21.333333h42.666666v21.333333a21.333333 21.333333 0 0 0 21.333334 21.333334h170.666666a21.333333 21.333333 0 0 1 21.333334 21.333333z" fill="#2A3244" p-id="5605"></path><path d="M832.001067 896v-42.666667c68.522667 0 144.597333-214.336 149.12-525.504A95.402667 95.402667 0 0 0 938.667733 405.333333a50.794667 50.794667 0 0 1-15.317333 36.821334C897.259733 468.010667 844.801067 469.632 797.867733 469.333333H789.3344a19.370667 19.370667 0 0 1-3.498667-0.298666l-184.746666-30.72A106.282667 106.282667 0 0 1 512.001067 333.013333V64a21.333333 21.333333 0 0 0-21.333334-21.333333H192.001067a21.333333 21.333333 0 0 0-21.333334 21.333333v106.666667H128.001067V64a64 64 0 0 1 64-64h298.666666a64 64 0 0 1 64 64v269.013333a63.786667 63.786667 0 0 0 53.333334 63.232L791.169067 426.666667h6.954666c23.808 0.192 79.530667 0.682667 95.168-14.933334A8.085333 8.085333 0 0 0 896.001067 405.333333c0-68.928 58.645333-128 106.666666-128a21.333333 21.333333 0 0 1 21.333334 21.333334c0 289.557333-67.285333 597.333333-192 597.333333zM256.001067 896c-26.581333 0-51.733333-19.434667-72.704-56.192A266.944 266.944 0 0 1 149.3344 725.333333a21.333333 21.333333 0 0 1 21.333333-21.333333c94.101333 0 170.666667-114.837333 170.666667-256h42.666667c0 153.6-83.2 280.554667-189.994667 296.896a247.146667 247.146667 0 0 0 26.368 73.813333C234.945067 844.224 248.3424 853.333333 256.001067 853.333333z" fill="#2A3244" p-id="5606"></path><path d="M192.001067 853.333333H129.921067a63.786667 63.786667 0 0 1-47.082667-20.864A64.768 64.768 0 0 1 66.1344 782.933333C77.569067 659.2 128.107733 576 192.001067 576c82.325333 0 149.333333-86.144 149.333333-192h42.666667c0 129.386667-86.122667 234.666667-192 234.666667-33.365333 0-73.642667 62.890667-83.2 168.128a21.802667 21.802667 0 0 0 5.632 16.938666 20.885333 20.885333 0 0 0 15.488 6.933334H192.001067zM298.667733 64h85.333334v42.666667h-85.333334zM149.3344 64h85.333333v42.666667H149.3344zM661.3344 832h-128a64 64 0 0 1-64-64V554.666667h42.666667v213.333333a21.333333 21.333333 0 0 0 21.333333 21.333333h128a21.333333 21.333333 0 0 0 21.333333-21.333333V554.666667h42.666667v213.333333a64 64 0 0 1-64 64zM725.3344 1024h-170.666667a21.333333 21.333333 0 0 1-21.333333-21.333333v-64a21.333333 21.333333 0 0 1 21.333333-21.333334h64v-42.666666a21.333333 21.333333 0 0 1 21.333334-21.333334h85.333333a21.333333 21.333333 0 0 1 21.333333 21.333334v128a21.333333 21.333333 0 0 1-21.333333 21.333333z m-149.333333-42.666667h128v-85.333333h-42.666667v42.666667a21.333333 21.333333 0 0 1-21.333333 21.333333h-64zM469.3344 1024h-170.666667a21.333333 21.333333 0 0 1-21.333333-21.333333v-64a21.333333 21.333333 0 0 1 21.333333-21.333334h64v-42.666666a21.333333 21.333333 0 0 1 21.333334-21.333334h85.333333a21.333333 21.333333 0 0 1 21.333333 21.333334v128a21.333333 21.333333 0 0 1-21.333333 21.333333z m-149.333333-42.666667h128v-85.333333h-42.666667v42.666667a21.333333 21.333333 0 0 1-21.333333 21.333333h-64z" fill="#2A3244" p-id="5607"></path></svg>